<svg xmlns="http://www.w3.org/2000/svg" xmlns:xlink="http://www.w3.org/1999/xlink" viewBox="0,0,256,256" width="100px" height="100px"><g fill-opacity="0" fill="#dddddd" fill-rule="nonzero" stroke="none" stroke-width="1" stroke-linecap="butt" stroke-linejoin="miter" stroke-miterlimit="10" stroke-dasharray="" stroke-dashoffset="0" font-family="none" font-weight="none" font-size="none" text-anchor="none" style="mix-blend-mode: normal"><path d="M0,256v-256h256v256z" id="bgRectangle"></path></g><g fill="none" fill-rule="nonzero" stroke="none" stroke-width="none" stroke-linecap="butt" stroke-linejoin="none" stroke-miterlimit="10" stroke-dasharray="" stroke-dashoffset="0" font-family="none" font-weight="none" font-size="none" text-anchor="none" style="mix-blend-mode: normal"><path transform="scale(5.12,5.12)" d="M46.831,9.753l-6.556,34.077c-0.055,0.142 -0.581,1.395 -1.896,1.935c-0.386,0.158 -0.79,0.237 -1.211,0.237c-0.545,0 -1.116,-0.132 -1.712,-0.396l-0.209,-0.125l-8.777,-6.845l-5.437,5.043c-0.484,0.38 -1.232,0.645 -1.984,0.355c-0.857,-0.261 -1.346,-1.529 -1.646,-2.494c-0.481,-1.548 -2.656,-8.794 -3.246,-10.758l-8.893,-3.045c-0.222,-0.081 -2.04,-0.783 -2.248,-2.478c-0.233,-1.88 2.029,-2.724 2.288,-2.814c1.424,-0.613 36.404,-15.617 37.685,-16.131h0.002c1.218,-0.489 2.396,-0.398 3.146,0.238c0.538,0.455 1.094,1.381 0.694,3.201z" id="strokeMainSVG" fill="#ffffff" stroke="#ffffff" stroke-width="5" stroke-linejoin="round"></path><g transform="scale(5.12,5.12)" fill="#dba1e6" stroke="none" stroke-width="1" stroke-linejoin="miter"><path d="M46.137,6.552c-0.75,-0.636 -1.928,-0.727 -3.146,-0.238h-0.002c-1.281,0.514 -36.261,15.518 -37.685,16.131c-0.259,0.09 -2.521,0.934 -2.288,2.814c0.208,1.695 2.026,2.397 2.248,2.478l8.893,3.045c0.59,1.964 2.765,9.21 3.246,10.758c0.3,0.965 0.789,2.233 1.646,2.494c0.752,0.29 1.5,0.025 1.984,-0.355l5.437,-5.043l8.777,6.845l0.209,0.125c0.596,0.264 1.167,0.396 1.712,0.396c0.421,0 0.825,-0.079 1.211,-0.237c1.315,-0.54 1.841,-1.793 1.896,-1.935l6.556,-34.077c0.4,-1.82 -0.156,-2.746 -0.694,-3.201zM22,32l-3,8l-3,-10l23,-17z"></path></g></g></svg>